<?xml version="1.0" encoding="UTF-8"?>
<svg xmlns="http://www.w3.org/2000/svg" xmlns:xlink="http://www.w3.org/1999/xlink" width="854" height="480" viewBox="0 0 854 480">
<defs>
<g>
<g id="glyph-0-0">
<path d="M 25.636719 -14.597656 C 24.945312 -14.539062 24.246094 -14.402344 23.539062 -14.183594 C 22.832031 -13.96875 22.292969 -13.625 21.917969 -13.152344 C 21.671875 -12.871094 21.421875 -12.453125 21.167969 -11.902344 C 20.914062 -11.347656 20.613281 -10.695312 20.261719 -9.945312 C 19.910156 -9.191406 19.550781 -8.453125 19.1875 -7.722656 C 18.824219 -6.992188 18.355469 -6.265625 17.78125 -5.535156 C 18.25 -4.972656 18.824219 -4.359375 19.507812 -3.695312 C 20.1875 -3.03125 20.769531 -2.550781 21.25 -2.257812 C 21.71875 -1.988281 22.386719 -1.757812 23.25 -1.570312 C 24.113281 -1.382812 24.820312 -1.277344 25.371094 -1.25 L 25.371094 0 L 18.109375 0 L 15.480469 -2.996094 C 15.09375 -2.574219 14.648438 -2.136719 14.148438 -1.683594 C 13.648438 -1.230469 13.125 -0.839844 12.570312 -0.511719 C 11.960938 -0.160156 11.347656 0.117188 10.730469 0.316406 C 10.113281 0.515625 9.386719 0.617188 8.550781 0.617188 C 7.683594 0.617188 6.816406 0.492188 5.960938 0.238281 C 5.101562 -0.015625 4.320312 -0.417969 3.613281 -0.96875 C 2.933594 -1.511719 2.378906 -2.203125 1.957031 -3.050781 C 1.535156 -3.898438 1.324219 -4.90625 1.324219 -6.082031 C 1.324219 -7.539062 1.707031 -8.859375 2.476562 -10.042969 C 3.246094 -11.222656 4.683594 -12.476562 6.789062 -13.804688 C 5.835938 -15.0625 5.09375 -16.152344 4.566406 -17.066406 C 4.039062 -17.984375 3.773438 -19.011719 3.773438 -20.152344 C 3.773438 -20.964844 3.933594 -21.707031 4.257812 -22.382812 C 4.582031 -23.058594 5.035156 -23.652344 5.625 -24.15625 C 6.164062 -24.613281 6.824219 -24.972656 7.597656 -25.230469 C 8.375 -25.492188 9.164062 -25.621094 9.960938 -25.621094 C 10.902344 -25.621094 11.726562 -25.46875 12.441406 -25.167969 C 13.152344 -24.871094 13.730469 -24.480469 14.175781 -23.996094 C 14.585938 -23.550781 14.902344 -23.035156 15.121094 -22.445312 C 15.335938 -21.859375 15.445312 -21.269531 15.445312 -20.683594 C 15.445312 -19.273438 15.007812 -18.058594 14.136719 -17.042969 C 13.261719 -16.023438 12.058594 -15.109375 10.523438 -14.300781 C 11.625 -12.808594 12.707031 -11.445312 13.765625 -10.21875 C 14.820312 -8.988281 15.835938 -7.78125 16.8125 -6.59375 C 17.597656 -7.851562 18.207031 -9.035156 18.640625 -10.148438 C 19.074219 -11.257812 19.289062 -12.238281 19.289062 -13.082031 C 19.289062 -13.460938 19.015625 -13.757812 18.46875 -13.972656 C 17.921875 -14.191406 17.167969 -14.398438 16.203125 -14.597656 L 16.203125 -15.851562 L 25.636719 -15.851562 L 25.636719 -14.597656 M 13.171875 -20.328125 C 13.171875 -21.527344 12.90625 -22.449219 12.378906 -23.089844 C 11.851562 -23.730469 11.101562 -24.050781 10.128906 -24.050781 C 9.578125 -24.050781 9.121094 -23.9375 8.757812 -23.714844 C 8.394531 -23.492188 8.085938 -23.210938 7.828125 -22.867188 C 7.59375 -22.539062 7.421875 -22.1875 7.316406 -21.8125 C 7.210938 -21.433594 7.160156 -21.101562 7.160156 -20.804688 C 7.160156 -19.996094 7.371094 -19.175781 7.792969 -18.347656 C 8.214844 -17.515625 8.875 -16.515625 9.765625 -15.339844 C 10.972656 -16.023438 11.839844 -16.757812 12.371094 -17.554688 C 12.90625 -18.347656 13.171875 -19.273438 13.171875 -20.328125 M 14.546875 -4.019531 C 13.453125 -5.40625 12.222656 -6.925781 10.851562 -8.578125 C 9.484375 -10.230469 8.386719 -11.625 7.5625 -12.765625 C 6.613281 -12.105469 5.9375 -11.335938 5.546875 -10.445312 C 5.152344 -9.558594 4.953125 -8.546875 4.953125 -7.40625 C 4.953125 -5.808594 5.410156 -4.480469 6.320312 -3.429688 C 7.230469 -2.378906 8.453125 -1.851562 9.980469 -1.851562 C 10.839844 -1.851562 11.679688 -2.035156 12.511719 -2.40625 C 13.339844 -2.777344 14.015625 -3.316406 14.546875 -4.019531 Z "/>
</g>
</g>
</defs>
<g fill="rgb(100%, 100%, 100%)" fill-opacity="1">
<use xlink:href="#glyph-0-0" x="30" y="53.113281"/>
</g>
</svg>
